<?xml version="1.0" standalone="no"?>
<!DOCTYPE svg PUBLIC "-//W3C//DTD SVG 20010904//EN"
 "http://www.w3.org/TR/2001/REC-SVG-20010904/DTD/svg10.dtd">
<svg version="1.0" xmlns="http://www.w3.org/2000/svg"
 width="1300.000000pt" height="1100.000000pt" viewBox="0 0 1300.000000 1100.000000"
 preserveAspectRatio="xMidYMid meet">

<g transform="translate(0.000000,1100.000000) scale(0.100000,-0.100000)"
fill="#000000" stroke="none">
<path d="M6949 9106 c-2 -2 -38 -7 -79 -10 -41 -4 -97 -11 -125 -16 -27 -5
-68 -12 -90 -14 -22 -3 -40 -5 -40 -6 0 -2 -19 -6 -64 -15 -19 -3 -37 -8 -40
-10 -4 -2 -27 -6 -51 -10 -25 -4 -49 -10 -55 -15 -5 -4 -30 -11 -55 -15 -25
-4 -51 -12 -57 -17 -7 -6 -13 -8 -13 -4 0 3 -15 0 -34 -8 -19 -8 -37 -12 -40
-8 -3 3 -6 0 -6 -5 0 -6 -19 -14 -42 -18 -24 -4 -52 -14 -64 -22 -12 -8 -34
-16 -50 -19 -15 -3 -35 -9 -46 -15 -10 -5 -18 -7 -18 -4 0 4 -13 -3 -29 -14
-16 -12 -35 -21 -43 -21 -8 0 -37 -11 -65 -25 -28 -13 -63 -27 -78 -31 -15 -4
-29 -13 -32 -20 -3 -8 -10 -14 -15 -14 -18 0 -83 -34 -91 -47 -4 -7 -14 -13
-21 -13 -27 0 -247 -135 -296 -182 -17 -15 -30 -26 -30 -22 0 3 -15 -5 -32
-18 -33 -23 -51 -37 -112 -90 -17 -15 -35 -28 -39 -28 -11 0 -31 -17 -89 -72
-27 -27 -51 -48 -54 -48 -7 0 -24 -18 -52 -54 -12 -16 -22 -25 -22 -22 0 9
-76 -68 -200 -202 -99 -107 -160 -174 -160 -178 0 -2 -18 -22 -40 -46 -22 -24
-40 -48 -40 -53 0 -6 -16 -28 -35 -50 -19 -22 -35 -43 -35 -47 0 -5 -8 -17
-17 -27 -27 -29 -38 -44 -50 -65 -9 -17 -13 -13 -38 33 -26 48 -31 51 -67 51
-21 0 -38 -4 -38 -10 0 -5 -6 -10 -12 -11 -12 0 -173 -211 -221 -289 -12 -19
-25 -36 -29 -38 -5 -2 -8 -9 -8 -15 0 -7 -13 -26 -28 -43 -61 -71 -68 -80 -80
-110 -8 -18 -13 -38 -12 -45 4 -26 0 -39 -11 -39 -6 0 -25 -15 -42 -32 -18
-18 -57 -53 -87 -78 -61 -50 -160 -149 -160 -159 0 -4 -9 -13 -20 -21 -11 -8
-20 -20 -20 -27 0 -7 -8 -21 -17 -31 -25 -24 -83 -116 -83 -130 0 -7 -3 -12
-8 -12 -4 0 -13 -15 -21 -32 -7 -18 -21 -51 -31 -73 -10 -22 -21 -51 -25 -65
-3 -14 -10 -34 -15 -45 -5 -11 -19 -56 -31 -100 -25 -92 -38 -320 -21 -351 9
-16 11 -16 15 -4 39 139 117 305 167 353 16 16 30 33 30 38 0 4 16 25 36 46
32 34 35 35 29 13 -8 -29 -46 -102 -57 -111 -4 -3 -19 -32 -32 -65 -14 -34
-36 -82 -50 -109 -14 -26 -26 -54 -26 -61 0 -7 -7 -20 -16 -29 -9 -8 -13 -23
-10 -32 4 -9 0 -23 -8 -32 -8 -9 -19 -32 -24 -51 -6 -19 -18 -54 -26 -77 -47
-128 -66 -476 -37 -658 14 -81 41 -188 51 -195 4 -3 11 -16 15 -30 8 -26 51
-89 69 -102 28 -20 35 -8 21 33 -11 30 -13 70 -10 152 6 129 8 143 23 177 12
27 10 31 18 -50 2 -19 11 -60 19 -90 9 -30 19 -67 22 -83 3 -15 9 -27 14 -27
5 0 8 -3 7 -7 -3 -14 20 -59 36 -72 18 -15 22 -41 5 -41 -5 0 -8 -4 -5 -8 3
-5 -4 -25 -14 -45 -11 -20 -20 -43 -20 -51 0 -8 -3 -16 -7 -18 -5 -1 -19 -28
-33 -58 -14 -30 -27 -57 -30 -60 -3 -3 -10 -14 -16 -25 -22 -40 -39 -69 -47
-79 -5 -6 -23 -35 -40 -65 -62 -105 -69 -116 -105 -161 -46 -58 -50 -62 -133
-146 -70 -72 -135 -113 -221 -137 l-43 -13 45 -22 c46 -22 156 -31 210 -18 14
3 38 8 54 12 16 3 44 13 62 20 19 8 37 15 41 15 15 1 118 61 150 87 19 15 60
53 93 85 54 51 80 71 66 49 -5 -8 -13 -114 -22 -292 -5 -97 -4 -473 1 -590 2
-36 8 -99 15 -140 7 -41 14 -86 15 -100 5 -38 34 -143 45 -162 6 -10 10 -25
10 -33 0 -8 5 -15 11 -15 5 0 8 -4 5 -8 -5 -9 39 -109 60 -132 7 -8 14 -19 15
-25 3 -17 45 -80 63 -94 9 -7 16 -19 16 -26 0 -6 9 -20 20 -30 11 -10 20 -23
20 -29 0 -7 33 -42 73 -80 39 -37 91 -85 114 -107 23 -21 46 -39 53 -39 6 0
16 -5 23 -10 7 -6 21 -17 32 -25 25 -17 19 -23 -31 -31 -21 -3 -43 -10 -49
-15 -5 -5 -15 -9 -21 -9 -37 0 -214 -146 -214 -176 0 -7 -6 -17 -14 -21 -16
-9 -48 -76 -56 -118 -4 -26 -9 -29 -45 -32 -22 -1 -832 -5 -1800 -8 -968 -3
-1770 -6 -1782 -7 -17 0 -23 -6 -23 -24 0 -23 3 -24 73 -25 165 -2 2388 -10
2950 -10 597 0 609 -1 625 -20 41 -49 94 -99 105 -99 7 0 35 -11 63 -24 29
-13 69 -27 90 -30 184 -29 549 -34 645 -8 30 8 60 14 67 15 6 0 12 4 12 9 0 4
11 8 24 8 14 0 27 4 30 9 3 4 27 14 53 21 27 8 50 16 53 19 3 3 18 13 34 22
28 16 31 16 74 -8 62 -35 160 -38 194 -5 13 12 29 22 34 22 6 0 16 15 23 33
l13 33 1087 -2 c597 -1 1091 -3 1097 -3 11 -1 44 -25 76 -57 9 -9 24 -14 33
-11 9 4 15 1 15 -7 0 -39 82 -127 133 -141 12 -3 31 -10 42 -15 44 -20 239
-60 317 -65 46 -3 98 -10 115 -15 21 -5 35 -5 39 2 3 5 16 7 28 3 44 -14 254
-21 311 -11 17 3 47 8 68 11 50 6 223 91 246 121 10 13 22 24 25 24 14 0 85
73 117 120 19 28 39 48 46 46 10 -4 159 -9 173 -6 3 0 867 2 1920 4 1053 2
1923 4 1933 5 13 1 17 10 17 36 l0 36 -87 -2 c-49 0 -90 0 -93 1 -3 1 -579 3
-1280 5 -701 2 -1281 4 -1289 4 -7 1 -11 7 -9 14 3 6 0 44 -7 82 -12 75 -12
274 0 445 4 58 9 128 10 156 1 28 4 55 7 60 2 5 4 35 4 66 -1 32 2 58 7 58 4
0 7 -5 7 -12 0 -24 79 -173 108 -205 17 -18 32 -37 34 -42 1 -6 23 -34 48 -64
43 -51 97 -96 150 -126 14 -8 27 -17 30 -21 16 -22 123 -60 185 -66 148 -15
207 -4 133 27 -17 7 -52 27 -77 44 -25 17 -54 34 -63 38 -10 3 -18 11 -18 17
0 5 -7 10 -15 10 -8 0 -15 4 -15 9 0 5 -15 25 -34 44 -18 19 -46 61 -61 93
-15 33 -35 76 -46 97 -10 20 -17 37 -14 37 2 0 -6 30 -20 68 -13 37 -27 90
-30 117 -3 28 -11 66 -18 85 -6 19 -11 40 -12 45 0 6 -4 28 -8 50 -3 22 -9 67
-12 99 -3 33 -9 64 -12 69 -3 5 -6 34 -8 65 -1 31 -5 95 -9 142 -4 47 -9 123
-11 170 -2 47 -6 99 -9 115 -11 68 -16 175 -8 175 16 0 42 -36 42 -58 0 -24
37 -93 57 -105 7 -4 13 -14 13 -21 0 -7 14 -28 31 -47 95 -104 168 -179 175
-179 3 0 22 -13 41 -30 18 -16 40 -30 48 -30 8 0 18 -6 22 -14 9 -14 69 -48
93 -52 8 -2 33 -8 55 -14 23 -6 59 -10 80 -8 l40 3 -25 22 c-14 13 -48 40 -76
60 -129 95 -191 207 -244 441 -7 28 -16 55 -21 58 -5 3 -7 9 -4 14 3 5 1 19
-4 33 -9 22 -17 65 -27 132 -1 11 -3 20 -4 20 -2 0 -4 9 -5 20 -2 11 -8 49
-14 85 -6 36 -13 90 -16 120 -9 86 -15 130 -21 156 -8 32 8 50 53 59 20 3 52
19 72 33 52 39 151 143 151 158 0 7 6 17 13 21 20 12 62 93 65 126 1 4 8 15
16 23 16 15 33 67 40 120 2 16 7 38 12 49 10 24 12 399 2 440 -4 17 -10 55
-14 85 -3 30 -10 63 -16 73 -5 9 -6 22 -3 27 3 5 1 12 -5 15 -6 4 -8 15 -5 25
3 10 1 21 -4 25 -6 3 -18 32 -26 63 -9 31 -20 66 -24 77 -11 30 -81 177 -97
205 -8 14 -27 50 -42 80 -14 30 -31 59 -37 63 -6 5 -2 6 8 3 10 -3 21 -6 23
-6 2 0 4 -5 4 -11 0 -7 11 -22 26 -35 14 -13 21 -24 17 -24 -4 0 -1 -6 7 -13
18 -14 95 -130 139 -207 17 -30 31 -50 32 -45 9 63 4 232 -8 285 -8 36 -14 77
-14 92 0 15 -5 30 -10 33 -5 4 -9 17 -9 29 0 40 -111 295 -132 304 -5 2 -8 10
-8 18 0 8 -4 14 -10 14 -5 0 -10 4 -10 10 0 26 -195 221 -238 239 -18 7 -32
17 -32 22 0 5 -6 9 -13 9 -6 0 -34 16 -61 35 -27 19 -57 35 -67 35 -10 0 -19
4 -21 10 -2 5 -28 16 -58 23 -30 8 -55 18 -56 23 0 5 -6 22 -12 37 -7 16 -12
34 -12 41 0 13 -50 133 -71 170 -6 10 -20 34 -30 53 -11 19 -17 38 -14 43 2 4
-1 13 -8 18 -7 6 -19 27 -27 47 -7 19 -17 35 -22 35 -4 0 -8 9 -8 20 0 11 -9
29 -20 40 -11 11 -18 20 -15 20 3 0 -11 21 -30 48 -19 26 -42 61 -50 79 -8 17
-23 38 -33 45 -11 7 -28 31 -40 53 -11 23 -39 60 -61 83 -23 23 -41 45 -41 48
0 4 -47 54 -105 111 -58 57 -105 109 -105 114 0 5 -4 9 -10 9 -9 0 -60 47 -60
55 0 5 -104 103 -181 170 -13 11 -31 25 -40 30 -9 6 -42 32 -73 59 -92 79
-239 186 -256 186 -5 0 -10 4 -10 8 0 5 -21 19 -47 32 -27 12 -57 30 -68 40
-11 9 -46 31 -79 49 -32 18 -68 41 -79 52 -12 10 -26 19 -32 19 -7 0 -20 9
-30 20 -10 11 -27 22 -39 26 -11 4 -46 21 -76 38 -60 35 -233 108 -246 105 -9
-2 -36 8 -108 41 -25 11 -52 17 -60 14 -9 -3 -16 -1 -16 5 0 6 -11 11 -25 11
-14 0 -42 7 -62 15 -19 8 -46 15 -59 15 -12 0 -25 4 -28 9 -3 4 -31 13 -63 19
-154 30 -224 42 -288 47 -38 3 -90 8 -115 11 -50 6 -545 15 -551 10z m531 -81
c19 -3 55 -7 80 -9 25 -2 56 -6 70 -10 14 -3 41 -8 60 -11 19 -3 53 -8 75 -11
22 -4 45 -11 52 -16 7 -5 17 -7 22 -4 5 4 12 2 15 -3 3 -5 15 -7 25 -4 10 3
22 0 25 -6 4 -6 25 -11 47 -11 21 0 39 -4 39 -8 0 -5 15 -9 33 -9 31 -1 168
-48 227 -78 16 -8 31 -15 32 -14 2 1 29 -10 61 -25 32 -14 62 -26 67 -26 4 0
21 -11 37 -24 15 -13 38 -26 51 -30 12 -4 22 -12 22 -17 0 -5 8 -9 18 -9 9 0
29 -10 44 -23 15 -12 59 -42 98 -66 38 -24 70 -47 70 -52 0 -5 6 -9 13 -9 7 0
23 -10 37 -23 14 -12 43 -36 65 -52 22 -16 66 -51 98 -78 31 -27 57 -45 57
-40 0 9 -82 96 -163 171 -31 29 -57 55 -57 58 0 6 40 -18 62 -37 10 -8 39 -26
65 -39 45 -23 57 -30 86 -56 7 -6 23 -17 37 -24 13 -7 29 -17 34 -21 6 -5 38
-30 71 -56 33 -27 67 -55 76 -63 8 -8 35 -31 60 -51 24 -21 67 -58 94 -84 28
-25 54 -49 58 -53 9 -8 58 -56 97 -95 14 -14 50 -53 80 -88 30 -34 64 -72 76
-83 12 -12 42 -52 69 -91 26 -38 60 -85 76 -102 16 -18 29 -37 29 -43 0 -5 5
-10 10 -10 6 0 10 -7 10 -15 0 -9 7 -18 15 -21 8 -4 15 -14 15 -25 0 -10 6
-22 13 -26 6 -4 23 -29 36 -55 13 -27 28 -48 32 -48 5 0 9 -5 9 -11 0 -11 63
-143 78 -162 5 -7 14 -28 21 -47 14 -36 81 -183 107 -232 24 -44 19 -54 -28
-52 -65 3 -72 4 -86 13 -13 8 -92 267 -92 302 0 45 -59 159 -83 159 -21 0
-165 -143 -187 -186 -16 -31 -18 -34 -53 -79 -13 -16 -36 -48 -50 -70 -15 -22
-27 -33 -28 -25 -5 95 -87 396 -154 566 -14 34 -40 89 -60 124 -19 34 -35 64
-35 67 0 6 -70 114 -83 128 -9 10 30 -72 97 -205 27 -53 92 -225 100 -265 6
-27 29 -102 36 -115 7 -16 15 -47 25 -105 5 -31 8 -45 25 -130 11 -55 30 -173
35 -220 1 -16 5 -48 9 -70 16 -105 26 -193 40 -335 27 -281 36 -386 36 -410
-1 -14 1 -54 4 -90 3 -36 8 -130 11 -210 2 -80 7 -197 9 -260 3 -63 8 -216 11
-339 3 -123 8 -227 10 -231 3 -5 1 -11 -5 -15 -6 -4 -8 -10 -6 -14 3 -4 8
-116 11 -247 7 -259 10 -343 20 -474 4 -47 8 -105 10 -130 2 -37 17 -146 40
-297 2 -12 6 -27 10 -32 3 -6 8 -36 11 -68 3 -32 8 -62 12 -68 4 -5 8 -14 9
-20 12 -51 42 -147 56 -179 9 -21 17 -41 17 -44 0 -21 88 -176 122 -214 61
-67 91 -108 85 -114 -10 -10 -203 116 -221 145 -4 7 -26 32 -48 55 -35 37
-156 256 -142 256 4 0 -1 11 -9 24 -9 12 -19 41 -23 62 -3 21 -10 46 -14 54
-5 8 -11 31 -14 51 -3 20 -9 47 -14 60 -5 13 -10 200 -10 414 -1 215 -6 415
-11 445 -8 50 -9 44 -12 -70 -1 -69 -4 -138 -4 -155 -7 -107 -17 -333 -17
-345 0 -8 -4 -46 -9 -85 -5 -38 -11 -97 -14 -130 -10 -115 -18 -177 -32 -240
-2 -11 -6 -36 -9 -55 -4 -34 -12 -73 -54 -268 -11 -51 -24 -101 -29 -111 -6
-10 -8 -21 -5 -23 2 -3 -1 -18 -8 -34 -6 -16 -13 -33 -13 -39 -5 -31 -18 -73
-30 -96 -8 -14 -12 -28 -10 -31 3 -3 -1 -18 -10 -34 -8 -16 -15 -35 -15 -42 0
-8 -6 -28 -14 -45 -50 -110 -66 -149 -66 -157 0 -6 -11 -28 -25 -50 -14 -22
-25 -42 -25 -46 0 -15 -37 -83 -70 -129 -20 -27 -45 -66 -56 -85 -10 -19 -29
-48 -42 -63 -12 -16 -22 -33 -22 -39 0 -5 -11 -19 -25 -30 -14 -11 -25 -24
-25 -29 0 -15 -122 -139 -137 -139 -7 0 -13 4 -13 8 0 11 -121 72 -144 72 -9
0 -29 6 -44 13 -15 7 -39 13 -54 12 -16 0 -28 2 -28 6 0 8 -114 25 -145 21
-11 -1 -15 1 -9 5 27 20 174 280 174 309 0 5 7 23 16 39 15 29 67 197 106 344
11 41 28 92 40 114 36 71 74 258 49 243 -6 -4 -11 -15 -11 -25 0 -36 -51 -166
-100 -254 -27 -49 -50 -94 -50 -98 0 -5 -3 -9 -7 -9 -5 0 -19 -16 -32 -35 -21
-31 -38 -53 -71 -92 -5 -7 -10 -15 -10 -18 0 -3 -12 -18 -27 -34 -16 -15 -59
-60 -97 -99 -38 -40 -72 -72 -77 -72 -4 0 -14 -6 -21 -12 -23 -23 -94 -68
-105 -68 -6 0 -16 -7 -23 -15 -7 -8 -15 -13 -19 -11 -3 2 -23 -4 -44 -14 -43
-21 -139 -46 -212 -54 l-50 -6 30 16 c17 9 33 22 37 28 4 6 8 8 8 3 0 -7 45
30 95 80 13 12 26 19 29 15 4 -3 5 0 2 8 -3 9 13 35 39 63 25 27 52 62 60 78
8 15 26 44 38 62 59 87 174 346 184 414 3 18 9 33 15 33 5 0 8 8 7 18 -2 9 4
33 14 52 9 19 21 53 26 75 6 22 22 85 36 140 14 55 28 107 30 115 24 102 34
152 40 190 5 32 16 55 41 80 19 20 34 39 34 43 0 4 8 16 18 26 32 37 42 50 54
78 7 15 15 30 18 33 29 25 98 280 76 280 -2 0 -14 -33 -26 -72 -58 -190 -210
-395 -375 -505 -38 -26 -71 -51 -73 -55 -5 -11 -160 -60 -179 -56 -12 2 1 13
38 30 30 15 82 53 115 85 59 59 104 110 104 120 0 2 11 19 24 36 13 18 31 48
40 67 8 19 20 42 25 50 6 8 16 31 24 50 8 19 24 55 34 80 11 25 26 67 32 95 7
27 16 54 20 60 8 10 24 61 26 80 0 6 3 15 7 20 3 6 18 71 33 145 14 74 31 153
36 175 6 22 12 54 14 70 8 59 15 121 19 165 2 25 7 65 10 90 14 116 29 308 30
372 1 32 3 58 6 58 22 0 18 1201 -5 1273 -2 7 -6 71 -10 142 -3 72 -8 150 -10
175 -2 25 -7 77 -10 115 -15 191 -122 741 -141 723 -2 -3 3 -31 12 -63 8 -33
16 -71 18 -85 2 -14 15 -92 29 -175 31 -180 34 -200 42 -290 3 -38 8 -92 11
-120 2 -27 6 -97 9 -155 3 -58 7 -132 10 -165 24 -293 34 -870 19 -1110 -3
-55 -7 -115 -8 -134 0 -19 -5 -35 -11 -35 -9 -1 -135 241 -144 275 -2 8 -4 19
-6 24 -1 6 -5 17 -8 25 -10 24 -38 111 -43 131 -2 11 -7 29 -10 42 -3 12 -6
27 -7 32 -2 6 -5 15 -9 20 -3 6 -9 33 -13 60 -5 28 -9 57 -11 65 -14 75 -17
140 -20 370 -1 146 -5 279 -7 295 -6 39 -15 123 -23 210 -7 88 -15 125 -48
249 -29 106 -45 146 -46 112 0 -10 4 -35 9 -55 24 -88 42 -175 47 -224 3 -28
7 -65 10 -82 19 -130 26 -642 11 -830 -18 -227 -22 -269 -37 -360 -12 -74 -42
-181 -61 -216 -8 -17 -8 -20 1 -14 19 11 65 121 83 195 17 68 19 83 41 265 8
61 15 95 16 78 1 -18 3 -36 5 -40 1 -5 5 -26 9 -48 25 -142 135 -461 167 -485
3 -3 12 -16 19 -29 7 -14 17 -30 22 -35 5 -6 21 -28 36 -49 l27 -37 -12 -143
c-6 -78 -15 -182 -19 -232 -4 -49 -8 -97 -9 -105 -1 -8 -5 -42 -9 -75 -18
-148 -29 -217 -50 -305 l-13 -55 -12 41 c-6 22 -19 50 -28 62 -10 11 -27 31
-38 43 -11 13 -24 31 -30 39 -30 48 -196 187 -304 255 -9 5 -31 20 -49 33 -17
13 -47 28 -65 34 -17 6 -39 16 -47 23 -45 37 -189 79 -305 89 -27 2 -52 5 -55
6 -3 1 -7 2 -10 2 -3 0 -55 -3 -115 -6 -96 -5 -197 -17 -245 -29 -47 -12 -148
-58 -177 -80 -30 -24 -29 -40 2 -57 30 -16 32 -27 6 -35 -11 -3 -39 -26 -63
-52 -23 -25 -51 -53 -61 -62 -35 -31 -108 -141 -101 -152 7 -12 26 -10 164 10
36 6 92 13 125 16 33 3 74 10 91 14 50 14 340 5 439 -13 50 -9 99 -18 110 -20
11 -1 34 -10 52 -19 18 -10 39 -17 48 -17 10 0 33 -7 53 -16 21 -9 52 -22 70
-30 18 -8 39 -14 46 -14 8 0 36 -11 63 -24 171 -84 282 -136 292 -136 6 0 10
14 9 33 -4 39 5 39 90 7 17 -6 32 -14 32 -15 0 -2 -7 -30 -16 -62 -16 -59 -33
-126 -39 -153 -2 -8 -4 -15 -5 -15 -1 0 -3 -7 -5 -15 -1 -9 -12 -36 -23 -60
-11 -25 -23 -56 -27 -70 -9 -29 -109 -234 -124 -252 -6 -7 -34 -42 -63 -78
-76 -94 -107 -123 -158 -147 -74 -36 -98 -38 -131 -14 -37 27 -38 13 -1 -21
34 -33 141 -62 172 -48 3 1 14 4 25 5 38 4 130 55 210 114 43 33 81 58 83 56
6 -6 -91 -357 -123 -445 -7 -19 -23 -66 -35 -105 -13 -38 -28 -81 -33 -95 -6
-14 -11 -29 -11 -35 -1 -5 -9 -22 -19 -37 -10 -14 -19 -36 -20 -47 -1 -12 -5
-21 -9 -21 -4 0 -8 -6 -8 -12 0 -12 -40 -93 -90 -185 -12 -22 -34 -47 -49 -54
-14 -7 -38 -22 -53 -32 -16 -10 -28 -15 -28 -11 0 3 -6 2 -12 -4 -26 -21 -86
-50 -116 -57 -18 -3 -32 -11 -32 -16 0 -5 -6 -9 -14 -9 -7 0 -40 -12 -72 -26
-33 -14 -74 -32 -91 -40 -18 -8 -48 -21 -66 -28 -18 -8 -54 -21 -80 -28 -45
-12 -63 -28 -31 -28 8 0 12 -4 9 -10 -3 -5 -2 -26 4 -45 8 -31 7 -37 -7 -41
-26 -8 -142 -65 -182 -89 -19 -12 -47 -25 -62 -29 -16 -3 -28 -11 -28 -16 0
-6 -4 -10 -9 -10 -10 0 -200 -107 -275 -155 -37 -23 -57 -30 -71 -25 -17 6
-144 140 -206 217 -16 20 -16 21 7 19 13 0 24 -4 24 -7 0 -4 61 -6 136 -5 133
2 137 3 149 26 8 14 10 32 5 45 -4 11 -4 30 1 43 10 27 11 27 -91 42 -75 11
-112 18 -225 42 -33 7 -76 13 -95 14 -19 0 -64 9 -99 18 -35 9 -66 15 -69 12
-3 -3 -10 -1 -17 4 -6 5 -38 12 -71 14 -32 2 -61 5 -64 6 -3 1 -9 3 -15 5 -5
1 -12 3 -15 4 -3 2 -12 4 -20 6 -8 1 -34 8 -57 14 -23 6 -45 11 -50 10 -4 -1
-21 3 -36 9 -15 7 -31 11 -35 10 -4 -1 -14 1 -22 5 -8 3 -40 10 -70 16 -30 6
-62 13 -70 16 -57 18 -139 37 -158 36 -13 -1 -33 6 -45 14 -12 8 -33 15 -48
15 -15 0 -40 7 -55 15 -16 8 -37 15 -47 15 -10 0 -30 6 -45 14 -35 18 -225 81
-234 78 -4 -1 -24 7 -43 18 -20 11 -40 18 -45 15 -5 -3 -11 -1 -15 5 -3 5 -14
10 -25 10 -10 0 -20 7 -24 15 -3 8 -11 15 -18 15 -17 0 -112 49 -210 107 -43
27 -92 55 -107 65 -16 9 -50 32 -75 52 -26 20 -52 36 -57 36 -10 0 -99 73
-156 128 -13 12 -30 22 -38 22 -8 0 -15 6 -15 14 0 7 -14 24 -32 37 -17 13
-41 35 -52 48 -12 14 -51 56 -88 95 -38 39 -68 75 -68 80 0 5 -8 19 -19 30
-28 32 -71 119 -67 137 0 4 -8 17 -18 28 -17 19 -20 37 -19 134 0 66 5 124 12
142 7 17 15 41 17 54 10 49 18 52 49 23 32 -30 57 -46 95 -62 14 -5 33 -15 42
-20 22 -13 68 -13 68 -1 0 6 -12 17 -28 26 -29 18 -99 115 -128 179 -23 50
-20 115 6 158 11 18 20 42 20 53 0 12 6 27 13 33 9 10 13 86 14 299 1 158 4
292 7 299 3 8 1 16 -4 19 -6 4 -8 23 -5 43 3 20 7 91 10 157 2 66 6 129 8 140
3 11 8 43 12 70 4 28 11 55 17 62 5 7 7 16 4 21 -3 5 2 22 11 38 14 27 19 61
38 259 3 39 11 104 17 145 6 41 12 86 14 100 9 68 34 193 40 199 3 3 3 -12 0
-35 -4 -22 -9 -58 -11 -80 -2 -21 -7 -77 -12 -124 -10 -107 -6 -365 6 -405 8
-24 10 -14 11 55 4 184 19 450 26 461 2 3 5 30 8 60 17 178 58 356 130 559 20
57 21 82 3 55 -8 -11 -19 -36 -26 -55 -148 -413 -164 -464 -196 -611 -14 -68
-28 -135 -29 -149 -2 -14 -7 -56 -12 -95 -5 -38 -8 -110 -6 -159 2 -81 -1 -94
-28 -149 -16 -33 -30 -71 -30 -84 0 -12 -4 -23 -10 -23 -5 0 -7 -7 -4 -15 4
-8 2 -15 -3 -15 -5 0 -10 -13 -11 -29 -1 -16 -9 -45 -17 -65 -8 -19 -15 -46
-15 -60 0 -14 -4 -27 -9 -30 -5 -3 -12 -27 -16 -53 -4 -27 -10 -52 -15 -58 -8
-10 -18 -51 -25 -102 -2 -15 -7 -39 -10 -53 -4 -14 -8 -41 -11 -60 -2 -19 -8
-62 -13 -95 -9 -60 -6 -388 4 -496 6 -65 34 -153 70 -217 39 -70 31 -84 -20
-29 -91 98 -126 168 -160 322 -20 89 -26 300 -12 425 10 89 -1 85 -25 -8 -18
-74 -24 -394 -8 -435 4 -12 20 -61 35 -109 15 -49 31 -90 36 -94 5 -3 17 -24
28 -46 16 -35 17 -44 5 -55 -15 -16 -36 -84 -38 -125 0 -16 -5 -28 -10 -28 -4
0 -5 -11 -2 -24 3 -14 2 -27 -3 -30 -4 -3 -7 -29 -5 -58 2 -29 4 -63 4 -76 0
-33 44 -162 76 -219 15 -28 47 -78 71 -110 44 -58 44 -58 37 -118 -18 -136
-24 -420 -12 -516 11 -86 42 -204 84 -314 4 -13 -2 -9 -17 10 -13 17 -26 32
-29 35 -11 11 -66 107 -77 135 -16 40 -33 129 -48 245 l-12 95 -1 -95 c-1 -52
3 -124 8 -160 5 -36 11 -87 14 -115 8 -84 18 -138 33 -185 9 -25 17 -56 18
-68 2 -13 11 -32 21 -43 9 -10 14 -19 10 -19 -3 0 8 -27 25 -60 17 -34 29 -64
25 -67 -7 -8 -53 15 -80 40 -11 9 -26 17 -33 17 -7 0 -13 4 -13 8 0 5 -16 17
-35 28 -19 10 -35 22 -35 26 0 5 -6 8 -13 8 -7 0 -28 18 -47 40 -18 22 -42 42
-52 46 -10 3 -18 11 -18 19 0 7 -13 24 -28 37 -15 13 -34 36 -42 51 -8 16 -25
40 -37 53 -13 14 -23 28 -23 33 0 4 -9 17 -20 29 -12 12 -18 22 -15 22 4 0 -2
15 -13 33 -47 75 -116 291 -137 430 -18 111 -28 356 -26 637 1 264 4 344 20
460 5 41 12 104 15 140 3 36 15 119 26 185 36 207 38 220 35 223 -8 8 -58
-203 -80 -332 -10 -59 -59 -149 -114 -210 -27 -30 -55 -64 -61 -75 -6 -12 -14
-21 -19 -21 -4 0 -30 -20 -57 -45 -27 -25 -52 -45 -56 -45 -4 0 -18 -10 -32
-23 -24 -23 -35 -28 -111 -61 l-39 -18 58 60 c62 63 165 196 187 241 7 14 32
53 55 86 41 59 171 316 179 352 2 10 13 40 24 66 12 27 21 55 21 63 0 7 9 28
20 46 11 18 20 43 20 56 0 12 5 22 11 22 6 0 8 8 4 19 -3 10 0 25 7 32 12 13
47 106 51 139 2 8 6 20 10 27 4 6 11 31 16 55 5 24 16 69 25 101 9 32 16 67
16 78 0 12 6 33 14 47 15 29 27 95 47 254 7 54 14 97 15 95 1 -1 5 -31 9 -67
4 -36 9 -68 11 -72 3 -4 7 -24 10 -45 10 -83 14 -33 13 203 0 264 0 279 27
419 9 50 17 97 18 105 1 9 5 20 8 26 4 5 9 28 12 49 3 22 9 55 15 74 6 18 10
36 9 40 -1 3 1 13 4 21 3 8 11 35 18 60 7 25 19 61 27 81 8 19 13 39 12 45 -2
8 1 18 18 62 4 9 7 22 8 27 0 6 6 20 13 33 7 12 10 22 6 22 -3 0 0 10 8 23 8
12 20 41 28 65 7 23 17 42 22 42 4 0 8 11 8 25 0 14 5 25 10 25 6 0 10 8 10
18 0 10 5 23 10 28 6 6 13 21 15 34 2 13 8 26 12 29 10 7 30 48 38 79 4 12 11
22 16 22 5 0 9 11 9 25 0 14 3 25 8 25 4 0 23 28 42 63 19 34 40 71 47 82 7
11 17 31 23 45 6 13 14 27 18 30 13 10 52 69 52 79 0 5 16 27 35 48 19 21 38
46 41 56 3 9 10 17 15 17 5 0 9 5 9 10 0 6 16 27 35 47 19 20 35 39 35 43 0
11 90 109 227 247 130 132 313 293 386 339 20 13 37 29 37 34 0 6 10 14 23 19
13 5 37 21 54 35 17 14 42 32 55 39 12 7 55 34 95 60 39 26 76 47 82 47 6 0
11 4 11 9 0 5 8 11 18 15 9 3 24 9 32 14 8 5 25 14 37 20 13 7 33 17 45 24 13
6 30 15 38 19 8 5 31 16 50 25 19 9 73 35 120 57 47 22 92 42 100 44 9 1 42
14 73 28 32 14 66 25 76 25 11 0 21 5 23 10 2 6 17 13 33 15 17 2 30 4 30 5 0
1 7 3 15 6 8 2 56 15 105 29 135 38 245 64 295 70 25 3 52 8 61 10 21 7 83 13
204 21 55 4 102 8 104 10 6 6 395 -5 441 -11z m-3273 -1596 c2 -11 10 -33 18
-49 17 -33 5 -82 -32 -123 -12 -14 -19 -27 -17 -30 2 -2 -18 -49 -45 -103 -28
-54 -52 -108 -54 -119 -7 -36 -30 -75 -45 -75 -7 0 -22 10 -32 22 l-17 22 -12
-22 c-15 -29 -25 -28 -55 5 -24 26 -25 26 -23 5 1 -12 5 -22 9 -22 4 0 7 -3 6
-7 0 -5 1 -15 5 -23 42 -109 58 -172 49 -197 l-10 -28 -17 39 c-9 22 -18 48
-20 57 -2 10 -8 26 -13 36 -5 10 -15 42 -22 71 -6 28 -16 52 -21 52 -5 0 -9
17 -9 39 0 37 40 105 120 201 12 14 48 63 82 110 64 89 139 173 147 164 3 -2
6 -14 8 -25z m5757 -291 c62 -219 67 -241 61 -270 -4 -15 -10 -28 -15 -28 -4
0 -36 -45 -70 -100 -35 -55 -67 -97 -73 -93 -6 3 -7 1 -3 -6 7 -11 -37 -81
-56 -89 -4 -2 -8 -8 -8 -13 0 -6 -5 -15 -10 -22 -6 -7 -20 -23 -31 -37 l-20
-25 -19 25 c-11 14 -20 31 -20 38 0 6 -4 12 -8 12 -5 0 -9 6 -9 13 0 6 -3 36
-7 65 -6 36 -4 52 3 52 7 0 14 -7 18 -16 4 -12 11 -8 33 18 l27 33 20 -32 19
-31 37 23 c42 25 77 59 77 74 0 5 16 30 35 55 33 43 33 45 9 34 -20 -9 -30 -9
-46 1 -16 10 -23 10 -37 -3 -23 -21 -38 -20 -53 4 -16 25 -26 25 -55 -2 -22
-21 -23 -21 -43 -3 -19 17 -21 17 -38 2 -27 -25 -42 -21 -43 11 -1 15 -2 39
-3 55 -1 15 1 27 5 27 4 0 17 21 30 48 12 26 30 54 38 62 9 8 22 27 30 42 20
39 163 208 176 208 6 0 28 -60 49 -132z m-6126 -300 l22 -72 -32 -35 c-84 -89
-151 -150 -181 -164 -17 -9 -49 -32 -71 -51 -21 -20 -42 -36 -47 -36 -5 0 -9
-5 -9 -10 0 -6 -16 -24 -35 -41 -19 -17 -35 -34 -35 -38 0 -4 -23 -31 -51 -61
-28 -30 -55 -66 -60 -79 -5 -13 -12 -22 -14 -19 -6 6 42 118 60 138 7 8 16 26
20 40 4 14 18 39 31 56 13 17 24 38 24 47 0 8 4 17 8 19 13 5 52 65 52 80 0 7
9 19 20 26 11 7 20 18 20 26 0 8 11 21 25 30 14 9 25 22 25 29 1 20 176 183
200 186 3 1 15 -31 28 -71z m6327 -19 c0 -1 20 -3 45 -5 25 -2 59 -6 75 -9 17
-3 37 -7 45 -8 9 -2 20 -5 25 -9 6 -3 24 -8 40 -12 41 -10 131 -53 185 -90 60
-41 210 -194 210 -216 0 -5 6 -10 13 -10 7 0 18 -15 25 -34 7 -18 21 -41 32
-51 11 -10 20 -24 20 -32 0 -8 15 -42 33 -76 28 -52 55 -124 88 -234 5 -16
-13 -3 -56 40 -71 70 -131 121 -219 188 -34 25 -97 81 -141 124 -44 43 -106
98 -137 121 -96 70 -308 165 -401 179 -26 4 -47 12 -47 19 0 6 16 29 35 51 20
22 37 47 40 56 4 11 16 15 48 13 23 -2 42 -4 42 -5z m-6269 -135 c6 -21 16
-52 23 -69 9 -22 10 -40 2 -70 -19 -76 -25 -100 -27 -115 -2 -8 -10 -49 -19
-90 -9 -41 -16 -84 -17 -95 0 -11 -6 -51 -14 -90 -7 -38 -16 -103 -19 -144 -3
-41 -14 -104 -24 -140 -10 -36 -17 -74 -15 -83 1 -10 -2 -20 -6 -23 -5 -3 -7
-12 -4 -20 3 -7 0 -23 -6 -35 -6 -12 -12 -42 -12 -66 0 -24 -3 -46 -8 -49 -5
-3 -11 -31 -15 -63 -4 -31 -9 -64 -13 -72 -3 -8 -7 -19 -7 -25 -5 -35 -17 -92
-22 -105 -4 -8 -7 -18 -8 -22 -2 -5 -4 -11 -5 -15 -1 -5 -3 -12 -4 -18 -6 -35
-20 -82 -28 -91 -5 -7 -8 -16 -7 -20 1 -5 0 -12 -1 -16 -1 -5 -3 -11 -4 -15
-3 -15 -58 -188 -75 -233 -9 -25 -16 -48 -17 -52 -1 -5 -3 -10 -4 -13 -1 -3
-3 -9 -4 -15 -6 -46 -85 93 -100 175 -1 6 -5 15 -8 21 -10 15 -30 188 -30 259
0 49 13 158 23 183 5 13 9 45 9 70 0 26 6 71 13 100 8 28 12 54 9 57 -13 12
-20 1 -32 -52 -7 -32 -17 -63 -22 -69 -4 -6 -5 -14 -1 -17 3 -4 1 -7 -5 -7 -7
0 -12 -13 -12 -29 0 -31 -30 -136 -60 -211 -21 -53 -52 -154 -57 -190 -2 -14
-8 -52 -12 -85 l-8 -60 -3 65 c-5 103 -2 311 5 360 4 25 8 54 9 65 1 11 5 27
8 35 9 23 38 169 36 178 -1 4 3 17 10 30 7 12 15 35 17 50 3 29 48 151 71 194
8 14 14 32 14 40 0 7 9 24 20 38 11 14 20 35 20 48 0 12 4 22 10 22 5 0 13 12
16 27 4 14 26 60 49 102 24 42 46 86 50 99 3 12 11 22 16 22 5 0 17 16 26 35
9 19 20 35 25 35 4 0 8 5 8 12 0 16 147 237 183 276 17 18 36 31 42 29 5 -2
15 -21 21 -43z m6229 -45 c81 -29 165 -71 198 -99 7 -6 29 -23 49 -38 20 -15
52 -38 70 -51 49 -36 146 -147 202 -229 26 -40 52 -72 57 -72 5 0 9 -6 9 -13
0 -7 11 -24 24 -38 13 -14 27 -35 30 -47 4 -12 12 -22 17 -22 5 0 9 -7 9 -15
0 -8 5 -15 10 -15 6 0 10 -9 10 -20 0 -11 4 -20 10 -20 5 0 14 -18 20 -40 6
-21 16 -45 24 -52 15 -15 66 -139 66 -161 0 -7 3 -17 7 -21 5 -4 13 -29 20
-54 6 -26 18 -72 27 -102 8 -30 17 -73 20 -95 2 -22 5 -40 7 -40 3 0 6 -33 14
-140 9 -116 9 -104 0 -220 -4 -49 -8 -102 -9 -117 0 -16 -4 -28 -7 -28 -4 0
-9 -17 -12 -37 -7 -55 -75 -233 -97 -253 -10 -9 -44 -65 -44 -70 1 -3 -19 -25
-43 -49 -37 -36 -44 -39 -38 -20 4 13 13 34 21 46 27 43 55 128 73 217 20 103
22 379 3 412 -10 16 -12 10 -13 -31 -1 -27 -3 -59 -5 -70 -11 -67 -16 -93 -24
-115 -4 -14 -11 -39 -14 -57 -5 -31 -98 -234 -117 -257 -5 -6 -21 -26 -34 -45
-14 -19 -25 -31 -25 -26 0 5 -12 -9 -26 -32 -32 -49 -140 -123 -244 -167 -41
-17 -124 -40 -198 -55 -83 -17 -87 -15 -57 20 37 45 77 125 91 184 7 28 20 79
29 115 32 124 34 268 10 588 -2 29 -9 60 -16 68 -6 8 -7 14 -2 14 6 0 2 31 -9
73 -11 39 -21 77 -22 82 -2 6 -6 17 -9 25 -3 8 -15 41 -26 73 -12 33 -32 78
-45 100 -13 23 -33 60 -46 82 -32 58 -70 111 -105 148 -83 90 -203 267 -231
343 -12 33 -25 85 -28 115 -7 55 -6 55 21 55 27 -1 28 1 109 109 8 11 39 52
68 92 30 39 59 81 66 93 14 26 33 24 155 -21z m-322 -686 c19 -27 46 -62 61
-78 14 -15 26 -31 26 -35 0 -4 14 -23 30 -41 17 -19 40 -52 52 -74 11 -22 27
-47 34 -56 8 -9 23 -39 33 -68 10 -29 23 -57 30 -64 6 -6 11 -22 11 -36 0 -15
6 -38 14 -52 7 -14 17 -52 20 -83 4 -31 12 -56 17 -56 5 0 7 -11 3 -24 -3 -14
-2 -31 2 -37 4 -7 8 -22 9 -33 1 -12 5 -48 8 -81 15 -126 18 -173 17 -265 -1
-143 -7 -220 -20 -270 -6 -25 -16 -65 -21 -90 -15 -68 -59 -150 -106 -198 -24
-24 -43 -40 -43 -35 0 4 -4 3 -8 -2 -4 -6 -20 -16 -37 -24 l-30 -13 25 -10
c43 -16 227 -12 270 6 8 3 31 8 50 11 55 9 114 22 140 32 18 7 27 10 38 12 5
0 47 28 93 61 46 33 87 60 91 60 16 0 8 -71 -8 -77 -15 -6 -15 -8 2 -20 15
-11 21 -43 36 -181 9 -92 19 -178 22 -192 2 -14 9 -65 16 -115 6 -49 15 -97
19 -105 5 -9 12 -36 16 -60 4 -25 12 -56 18 -70 6 -14 11 -32 13 -40 4 -36 26
-100 49 -146 14 -27 25 -53 25 -59 0 -14 -108 106 -116 128 -3 9 -9 17 -14 17
-5 0 -21 23 -36 50 -15 28 -31 50 -36 50 -4 0 -8 6 -8 14 0 8 -3 16 -8 18 -7
3 -107 200 -123 243 -53 139 -76 238 -78 343 -1 13 -7 22 -16 22 -12 0 -15
-13 -13 -67 1 -38 1 -174 0 -303 -2 -220 3 -446 13 -529 2 -20 7 -58 10 -86 3
-27 8 -75 10 -105 2 -30 7 -68 9 -85 3 -16 7 -57 10 -90 2 -33 9 -80 15 -105
5 -25 12 -65 15 -90 3 -25 10 -60 15 -77 5 -18 7 -33 4 -33 -3 0 -1 -6 4 -12
5 -7 10 -24 11 -37 0 -14 5 -36 11 -50 12 -34 25 -84 23 -93 -1 -5 2 -8 6 -8
5 0 14 -22 21 -50 7 -27 24 -67 38 -87 14 -21 34 -53 44 -70 l18 -33 -52 37
c-70 51 -141 125 -191 203 -49 76 -116 221 -123 267 -6 38 -32 52 -50 26 -17
-22 -33 -81 -44 -158 -5 -33 -13 -82 -19 -109 -5 -28 -8 -58 -5 -67 3 -10 2
-20 -3 -23 -4 -2 -9 -24 -11 -47 -1 -23 -4 -46 -7 -50 -2 -4 0 -10 6 -14 6 -4
8 -11 4 -16 -8 -14 -15 -74 -16 -154 -2 -94 11 -365 18 -376 3 -5 -12 -9 -33
-10 -52 -1 -385 -1 -563 0 l-145 1 -23 49 c-12 27 -22 53 -22 59 0 5 -7 15
-15 22 -24 20 -18 38 20 62 47 31 89 115 80 160 -9 43 -32 96 -60 133 -12 17
-30 46 -39 67 -10 20 -37 56 -62 80 -24 23 -44 47 -44 52 0 13 51 118 66 137
8 8 15 24 17 35 2 10 10 33 19 49 8 17 21 48 28 70 7 22 19 49 26 60 7 11 22
54 34 95 11 41 24 82 27 90 3 8 7 20 8 25 2 6 11 44 22 85 11 41 21 88 21 103
1 15 7 37 13 49 6 11 12 34 14 52 5 57 17 116 24 116 3 0 7 11 8 25 1 14 3 36
4 50 1 14 5 25 10 25 4 0 6 10 4 21 -4 21 -4 21 15 4 11 -10 20 -27 20 -38 0
-10 7 -35 16 -55 34 -79 86 -181 92 -184 4 -2 24 -28 44 -58 62 -90 163 -178
264 -229 34 -17 67 -31 73 -31 6 0 11 -4 11 -9 0 -9 18 -11 139 -14 89 -2 101
12 36 43 -25 12 -45 26 -45 31 0 5 -13 15 -28 23 -36 19 -111 97 -156 162 -28
42 -119 216 -121 234 -1 3 -15 50 -32 105 -38 123 -53 182 -65 260 -11 73 -16
100 -18 100 -1 0 -9 61 -14 120 -2 22 -7 69 -10 105 -3 36 -8 76 -11 90 -7 44
-15 219 -20 445 -2 121 -7 292 -11 380 -3 88 -8 201 -10 250 -2 50 -3 92 -4
94 0 4 -7 193 -15 441 -2 80 -7 183 -9 230 l-5 85 18 -41 c10 -22 34 -63 54
-91z m-5648 -943 c3 -5 1 -10 -4 -10 -6 0 -11 5 -11 10 0 6 2 10 4 10 3 0 8
-4 11 -10z m-11 -307 c-3 -258 -16 -385 -36 -349 -27 48 -14 422 19 561 4 17
6 33 5 38 -1 4 2 7 6 7 5 0 7 -115 6 -257z m6597 -187 c-23 -48 -46 -86 -51
-86 -21 0 -9 53 20 83 16 17 37 46 47 64 9 18 19 30 21 28 2 -2 -14 -42 -37
-89z m-6442 -1341 c21 -22 46 -45 57 -51 16 -10 18 -22 17 -120 -2 -60 -3
-109 -3 -109 -1 0 -3 -31 -6 -70 -2 -38 -9 -90 -14 -115 -5 -25 -12 -70 -15
-101 -8 -70 -31 -149 -38 -129 -4 8 -11 35 -17 59 -7 24 -18 55 -27 67 -8 13
-12 28 -8 34 3 5 3 16 -1 22 -5 7 -10 33 -11 58 -2 25 -6 52 -9 60 -14 37 -20
399 -8 454 l6 30 20 -24 c11 -14 36 -43 57 -65z m181 -153 c0 -9 132 -112 143
-112 4 0 15 -7 25 -16 30 -27 184 -124 197 -124 7 0 18 -7 25 -15 7 -8 19 -15
26 -15 8 0 23 -9 34 -20 11 -11 29 -20 40 -20 11 0 20 -4 20 -9 0 -5 21 -14
47 -20 25 -7 57 -21 71 -32 14 -10 33 -19 43 -19 11 0 19 -4 19 -10 0 -5 10
-10 23 -10 12 -1 33 -7 47 -15 14 -8 36 -15 50 -15 14 0 34 -7 44 -15 11 -8
32 -15 48 -15 15 0 28 -4 28 -10 0 -5 7 -10 15 -10 8 0 15 -4 15 -10 0 -5 -6
-10 -13 -10 -14 0 -51 -37 -78 -80 -10 -15 -16 -43 -15 -70 l2 -45 -50 -2
c-74 -2 -190 -23 -197 -34 -3 -6 -17 -12 -30 -14 -36 -5 -122 -38 -137 -53 -8
-7 -17 -10 -22 -7 -5 3 -33 -5 -62 -19 -29 -13 -70 -29 -90 -35 -20 -7 -42
-19 -49 -27 -6 -8 -19 -12 -28 -10 -9 3 -32 8 -51 11 -19 3 -53 10 -75 15 -22
5 -57 10 -77 10 -29 0 -38 4 -38 17 0 15 -1 15 -12 1 -7 -9 -24 -15 -38 -13
-14 1 -33 3 -42 4 -21 1 -23 24 -5 43 8 7 17 26 21 41 6 25 9 27 45 21 44 -7
61 8 33 28 -39 28 -46 62 -27 138 1 3 5 16 8 30 12 46 21 105 21 143 1 20 4
37 7 37 4 0 8 42 9 93 1 50 3 106 5 122 1 17 3 65 3 108 1 43 6 77 12 77 6 0
10 -4 10 -8z m4067 -484 c-14 -29 -31 -65 -36 -80 -6 -17 -16 -26 -24 -22 -8
2 -33 1 -57 -5 l-43 -9 89 88 c48 49 90 87 93 85 2 -3 -8 -29 -22 -57z m-558
-65 c-102 -123 -204 -180 -376 -209 -31 -5 -33 -4 -33 23 0 43 9 50 90 71 41
11 98 31 125 43 28 13 53 24 58 25 4 1 10 3 15 4 4 1 10 2 15 1 4 0 7 4 7 9 0
6 6 10 13 10 7 0 31 9 53 20 48 24 50 24 33 3z m-2325 -16 c3 3 11 1 18 -4 12
-10 110 -38 168 -50 14 -2 34 -8 45 -13 43 -17 154 -42 164 -35 6 3 11 1 11
-6 0 -7 9 -9 22 -6 12 4 27 2 32 -2 16 -13 131 -30 155 -24 13 3 21 1 21 -7 0
-6 6 -10 13 -7 6 2 20 0 30 -5 9 -5 48 -11 85 -13 99 -5 112 -11 112 -51 0
-18 4 -35 9 -38 5 -3 18 -24 30 -47 12 -22 26 -46 32 -52 5 -7 25 -29 43 -49
18 -21 49 -57 67 -82 19 -24 47 -53 64 -65 16 -12 45 -33 64 -46 41 -30 61
-33 36 -5 -18 19 -17 20 4 20 13 0 35 6 49 14 15 8 54 26 87 40 33 15 67 31
75 36 8 6 26 15 40 20 14 6 32 15 40 20 8 6 23 13 33 16 9 4 17 10 17 15 0 5
4 9 10 9 5 0 37 13 72 29 111 51 134 60 209 87 41 14 79 26 84 27 6 2 15 6 21
10 7 4 29 9 50 13 22 3 44 9 49 14 6 4 33 5 60 1 87 -11 199 0 275 27 19 7 19
7 57 16 17 4 34 14 37 22 3 8 12 14 21 14 8 0 40 14 71 31 51 29 79 36 169 43
17 1 36 5 43 9 19 13 14 -7 -15 -58 -69 -117 -83 -141 -92 -162 -14 -30 -17
-31 -121 -38 -149 -9 -265 -29 -275 -45 -6 -9 -46 -16 -145 -24 -62 -6 -199
-51 -216 -72 -6 -8 -27 -20 -46 -28 -67 -28 -142 -100 -173 -165 -27 -57 -32
-61 -65 -62 -19 -1 -213 -2 -430 -3 -358 -2 -450 3 -450 23 0 3 -12 11 -27 17
-16 7 -35 14 -43 18 -8 3 -33 17 -55 31 -22 13 -47 24 -56 25 -9 0 -27 8 -40
19 -13 10 -28 20 -34 21 -22 6 -41 13 -70 25 -66 30 -211 85 -223 85 -8 0 -28
11 -45 23 -18 13 -72 44 -122 68 -49 24 -94 50 -98 57 -5 7 -12 10 -17 7 -5
-3 -15 3 -22 13 -7 10 -24 24 -37 31 -56 30 -130 116 -137 160 -3 13 70 94 78
86 2 -2 21 6 43 19 37 20 44 21 87 10 26 -6 49 -9 52 -7z m-1443 -115 l42 -39
-15 -38 c-14 -35 -16 -37 -22 -17 -4 12 -12 22 -17 22 -6 0 -7 5 -4 10 4 6 2
16 -3 23 -10 13 -33 77 -27 77 2 0 22 -17 46 -38z m5012 -53 c15 -22 27 -44
27 -48 0 -5 9 -16 20 -26 11 -10 20 -22 20 -27 0 -5 11 -26 25 -48 33 -52 32
-92 -1 -130 -36 -40 -90 -67 -161 -79 -32 -6 -96 -18 -142 -26 l-85 -16 -22
28 c-24 29 -31 53 -15 53 6 0 43 33 84 74 78 78 152 173 189 244 12 23 25 42
28 42 4 0 18 -18 33 -41z m-2558 -34 c22 -2 78 -6 125 -8 82 -6 85 -7 88 -31
l3 -25 -88 3 c-48 2 -109 4 -135 5 -51 1 -88 26 -88 57 0 13 6 15 28 10 15 -4
45 -9 67 -11z m-2190 -189 c92 -8 121 -13 135 -21 6 -4 26 -9 43 -12 18 -3 37
-8 42 -12 6 -4 33 -16 60 -26 102 -37 235 -107 261 -138 61 -73 79 -155 44
-199 -20 -26 -22 -26 -135 -19 -19 1 -20 6 -17 101 2 61 0 100 -6 100 -5 0
-12 -15 -15 -32 -6 -46 -29 -101 -46 -112 -7 -4 -20 -17 -29 -27 -9 -10 -20
-19 -24 -19 -5 0 -25 -10 -46 -23 -20 -13 -62 -32 -92 -42 -30 -10 -64 -21
-75 -26 -11 -5 -40 -11 -65 -15 -25 -3 -49 -9 -55 -13 -13 -10 -121 -15 -273
-13 -186 2 -376 42 -415 86 -56 64 -61 72 -65 122 -3 31 0 54 7 58 6 4 11 13
11 21 0 7 20 35 45 61 25 25 45 50 45 55 0 4 8 10 18 13 10 4 27 14 38 24 28
24 58 40 107 57 79 26 202 54 235 53 18 -1 34 1 36 3 6 5 143 2 231 -5z m3930
-29 c22 0 46 -4 52 -9 7 -6 19 -8 26 -5 13 5 66 -6 174 -36 51 -15 125 -53
131 -69 2 -4 10 -8 18 -8 8 0 14 -4 14 -8 0 -5 14 -23 32 -41 28 -29 32 -38
32 -94 0 -64 -5 -77 -69 -165 -16 -23 -36 -41 -42 -42 -7 0 -20 -11 -29 -25
-9 -14 -22 -25 -30 -25 -7 0 -18 -8 -23 -17 -6 -10 -11 -14 -11 -9 0 5 -8 2
-17 -7 -10 -8 -21 -16 -26 -16 -4 0 -22 -8 -40 -18 -17 -9 -36 -18 -42 -19 -5
-1 -37 -9 -70 -18 -33 -8 -69 -15 -80 -15 -11 1 -72 1 -135 0 -63 0 -133 2
-155 4 -22 2 -71 6 -110 9 -38 3 -95 10 -125 15 -30 5 -58 7 -62 5 -4 -2 -9 0
-12 5 -3 5 -15 7 -26 4 -11 -3 -20 -1 -20 5 0 5 -21 13 -47 17 -58 8 -131 39
-150 63 -8 9 -21 32 -29 51 -15 33 -14 36 17 99 18 35 43 71 55 78 20 14 44
54 44 75 0 19 -43 -3 -79 -41 -56 -59 -81 -87 -81 -95 0 -3 -7 -13 -15 -22
-14 -13 -18 -13 -39 0 -22 15 -23 19 -12 59 10 38 50 88 108 134 32 25 147 84
164 84 10 0 33 7 49 16 17 9 52 17 78 19 26 1 56 10 66 19 10 9 28 16 40 16
12 0 31 5 41 10 28 15 92 21 223 22 65 0 120 5 123 9 3 5 15 4 27 -3 12 -6 40
-11 62 -11z"/>
<path d="M5741 7993 c-46 -92 -101 -212 -141 -308 -56 -135 -134 -409 -145
-510 -3 -27 -8 -57 -10 -65 -5 -15 -17 -101 -39 -265 -3 -21 -84 -187 -95
-195 -4 -3 -10 -12 -14 -22 -3 -9 -30 -54 -59 -100 -30 -45 -76 -126 -102
-178 -27 -52 -61 -111 -77 -132 -16 -20 -33 -53 -38 -75 -5 -21 -23 -74 -40
-118 -36 -97 -94 -327 -89 -358 2 -12 20 39 41 113 21 74 45 148 53 164 8 16
14 34 14 40 0 28 65 168 82 177 73 39 314 62 339 33 6 -8 9 -17 6 -20 -3 -3 1
-24 9 -46 8 -23 16 -55 19 -72 11 -80 79 -239 137 -324 38 -56 47 -47 15 15
-38 75 -45 92 -78 193 -27 85 -35 110 -42 145 -2 6 -6 16 -10 23 -5 6 -6 16
-3 20 2 4 -2 43 -9 87 -40 244 -40 485 1 805 3 25 7 59 9 75 10 111 69 345
123 495 9 25 17 47 17 50 1 3 9 22 18 44 9 21 17 42 17 47 0 5 30 77 66 159
68 154 85 224 25 103z m-343 -1395 c0 -140 8 -315 14 -335 3 -9 -12 -12 -29
-6 -20 8 -176 -3 -222 -16 -24 -6 -46 -9 -49 -6 -3 3 4 19 16 35 12 16 22 36
22 44 0 8 5 18 10 21 6 4 17 21 25 38 8 18 31 62 52 98 21 36 65 114 98 172
33 59 60 107 61 107 1 0 1 -69 2 -152z"/>
<path d="M7104 7985 c10 -62 33 -273 36 -340 9 -172 -1 -636 -15 -710 -2 -11
-7 -47 -10 -80 -7 -73 -13 -122 -20 -155 -2 -14 -7 -38 -9 -55 -14 -94 -21
-132 -48 -245 -16 -69 -33 -141 -37 -160 -7 -34 -18 -70 -49 -160 -20 -60 -75
-181 -138 -307 -28 -56 -48 -100 -43 -97 28 17 155 251 194 359 10 28 21 55
25 60 3 6 12 30 20 55 39 133 37 134 43 -11 4 -103 10 -146 27 -188 27 -68
120 -202 157 -226 16 -10 41 -29 57 -44 l30 -26 -15 25 c-65 107 -74 266 -28
471 10 44 13 48 52 58 23 6 51 12 62 14 11 1 26 6 33 11 13 8 34 -32 47 -90
12 -50 46 -146 76 -212 16 -35 29 -66 29 -68 0 -18 88 -130 142 -180 88 -82
183 -128 109 -52 -17 17 -31 35 -31 39 0 4 -6 14 -12 21 -34 36 -96 202 -113
298 -5 26 -4 31 4 20 6 -8 11 -20 11 -27 0 -18 80 -155 114 -194 34 -40 209
-189 222 -189 5 0 -21 28 -56 63 -194 190 -263 299 -316 501 -12 50 -21 93
-18 98 3 4 0 16 -5 25 -10 17 -10 16 -11 -2 0 -11 4 -47 10 -80 5 -33 14 -109
20 -169 13 -128 29 -204 58 -269 12 -26 19 -47 16 -47 -6 0 -44 39 -44 45 0 5
-31 56 -78 128 -34 51 -122 312 -122 363 0 22 -4 44 -10 50 -11 11 -36 175
-44 289 -9 122 -9 218 -1 350 12 191 8 437 -10 575 -3 19 -7 56 -10 82 -2 26
-7 58 -10 70 -3 13 -7 43 -10 68 -3 25 -9 63 -14 85 -8 36 -9 37 -10 10 0 -16
4 -70 9 -120 33 -303 33 -737 1 -930 -18 -106 -30 -169 -40 -205 -5 -19 -12
-53 -14 -75 -3 -22 -7 -47 -11 -55 -3 -8 -8 -26 -10 -40 -3 -14 -12 -59 -21
-100 -8 -41 -18 -88 -21 -105 -2 -16 -10 -52 -16 -79 -12 -57 -17 -275 -6
-323 15 -67 -15 -28 -83 107 -45 90 -60 164 -66 316 -5 126 -1 174 21 289 11
59 25 149 31 207 2 21 6 41 9 46 2 4 7 48 11 97 4 50 11 131 15 180 11 115 10
514 -2 625 -8 78 -30 223 -43 278 -3 12 -7 32 -10 43 -8 40 -18 34 -11 -6z
m297 -1340 c2 -76 27 -314 34 -326 4 -6 -29 -19 -112 -43 -20 -6 -21 -5 -11
36 11 46 13 57 27 133 5 28 16 75 24 105 15 53 26 115 27 154 0 11 2 17 4 15
3 -2 6 -36 7 -74z"/>
<path d="M5049 6898 c-13 -29 -38 -76 -56 -105 -17 -29 -35 -63 -39 -76 -4
-12 -29 -68 -55 -124 -27 -56 -49 -105 -49 -109 0 -6 -70 -201 -90 -249 -12
-31 -36 -102 -66 -200 -15 -49 -30 -94 -34 -100 -7 -9 -13 -68 -25 -235 -5
-70 5 -36 33 113 21 113 30 130 81 160 l30 18 -4 -33 c-9 -65 -18 -323 -11
-316 4 3 14 69 21 145 20 194 22 209 34 230 5 11 9 35 8 54 -1 41 10 104 23
128 5 10 7 20 5 23 -3 3 1 25 9 51 7 25 12 48 10 50 -2 2 2 22 10 45 8 22 17
53 19 69 5 29 32 122 47 158 4 11 16 43 25 70 18 50 33 86 86 203 30 65 34 82
21 82 -5 0 -19 -23 -33 -52z m-185 -490 c-8 -29 -19 -69 -24 -88 -5 -19 -12
-48 -14 -65 -6 -38 -26 -139 -37 -185 -6 -22 -21 -43 -41 -57 -18 -12 -33 -21
-34 -20 -3 3 40 150 48 162 3 6 13 33 21 60 8 28 28 86 45 130 16 44 32 88 36
98 3 9 8 17 10 17 3 0 -2 -24 -10 -52z"/>
<path d="M5667 6622 c-3 -4 -8 -48 -12 -97 -4 -50 -8 -105 -11 -124 -2 -19 -4
-80 -5 -137 -1 -57 -6 -101 -11 -98 -11 7 -10 -19 1 -48 5 -13 19 -75 30 -138
12 -63 23 -124 25 -135 7 -38 36 -130 46 -145 15 -23 13 4 -10 116 -11 55 -22
116 -24 138 -3 21 -8 55 -11 75 -5 32 -3 37 15 37 11 0 20 -4 20 -8 0 -15 92
-203 101 -206 5 -2 9 -9 9 -15 0 -16 126 -154 153 -169 16 -8 11 3 -18 38 -21
27 -42 51 -45 54 -9 8 -70 109 -70 117 0 3 -18 37 -40 75 -22 38 -45 88 -51
111 -7 23 -16 47 -20 52 -7 10 -34 126 -45 192 -4 21 -6 102 -7 181 0 126 -5
159 -20 134z m29 -527 c-7 -19 -26 46 -25 83 1 35 2 34 15 -18 7 -30 12 -59
10 -65z"/>
<path d="M6630 6524 c0 -50 -4 -115 -9 -145 -5 -30 -12 -76 -15 -104 -12 -102
-58 -332 -77 -382 -6 -15 -10 -30 -10 -33 1 -12 -21 -88 -35 -117 -8 -17 -17
-46 -19 -65 -5 -26 1 -19 26 32 32 66 81 200 74 200 -3 0 0 11 5 24 5 13 11
41 15 62 3 22 12 64 20 94 14 54 14 52 8 -70 -3 -69 -7 -136 -8 -150 -2 -14
-6 -59 -10 -100 -3 -41 -8 -88 -11 -105 -3 -21 -2 -25 4 -15 14 22 30 121 42
245 11 128 17 701 7 711 -4 4 -7 -33 -7 -82z"/>
<path d="M5275 5390 c-59 -9 -184 -56 -205 -78 -13 -13 -13 -14 0 -10 104 36
255 33 373 -7 44 -14 73 -20 76 -14 9 26 -101 102 -164 112 -16 2 -52 1 -80
-3z"/>
<path d="M7500 5372 c-77 -30 -172 -93 -159 -106 3 -3 30 3 60 13 141 48 230
50 347 10 30 -10 57 -17 60 -15 7 7 -32 55 -45 56 -6 0 -13 3 -15 8 -1 4 -18
16 -37 26 -48 27 -153 31 -211 8z"/>
<path d="M5050 5116 c-165 -41 -190 -50 -293 -102 -26 -13 -51 -24 -57 -24 -5
0 -30 -15 -54 -32 -24 -18 -56 -42 -72 -53 -15 -11 -35 -28 -43 -37 -9 -10
-21 -18 -28 -18 -7 0 -13 -4 -13 -9 0 -4 -10 -19 -22 -33 -55 -59 -118 -166
-118 -199 0 -11 28 -9 63 6 20 8 23 -14 7 -46 -7 -13 -7 -19 0 -19 5 0 10 6
10 13 0 9 2 9 8 0 6 -10 31 -5 103 21 51 18 101 36 109 40 8 3 58 15 110 26
168 35 198 40 290 47 41 3 83 9 92 14 10 5 19 5 22 0 3 -5 21 -5 41 -1 19 4
37 5 40 0 2 -4 44 -10 92 -14 85 -6 147 -18 188 -35 23 -10 129 -41 138 -41
11 0 0 121 -11 132 -7 7 -12 19 -12 27 0 8 -6 22 -14 30 -7 9 -17 26 -20 39
-7 20 -4 22 32 22 21 0 41 3 45 6 8 9 -15 53 -45 85 -28 30 -142 109 -157 109
-6 0 -11 5 -11 11 0 6 -9 9 -20 6 -11 -3 -20 -1 -20 4 0 5 -10 9 -23 9 -13 0
-28 5 -35 12 -17 17 -255 21 -322 4z"/>
<path d="M6672 4100 c-12 -5 -44 -12 -70 -15 -26 -3 -57 -8 -70 -11 -112 -24
-477 -61 -662 -68 -166 -5 -211 -11 -250 -31 -50 -26 -51 -73 -3 -305 14 -69
27 -134 28 -145 5 -38 59 -210 67 -213 4 -2 8 -11 8 -20 0 -9 11 -39 25 -66
14 -27 25 -54 25 -61 0 -16 49 -113 82 -162 15 -23 28 -46 28 -51 0 -5 28 -39
63 -75 53 -57 70 -68 122 -83 33 -9 65 -20 70 -24 20 -15 240 -42 354 -43 30
-1 100 6 201 18 35 4 137 27 155 34 11 5 40 14 64 21 131 35 206 144 232 333
6 45 13 98 17 117 11 66 4 236 -13 315 -22 106 -51 176 -102 255 -76 116 -118
162 -217 238 -71 54 -102 62 -154 42z m143 -72 c64 -46 137 -126 124 -134 -6
-3 -20 3 -32 13 -12 11 -33 27 -47 36 -14 10 -35 24 -48 33 -21 15 -24 15 -42
-1 -11 -10 -20 -22 -20 -27 0 -5 -11 -21 -25 -36 l-25 -27 -33 19 c-17 10 -52
30 -76 44 -25 13 -54 33 -65 43 -15 15 -23 16 -35 7 -27 -20 -70 -68 -82 -90
-9 -17 -17 -19 -47 -13 -21 4 -41 10 -47 14 -5 4 -26 14 -45 21 -19 7 -42 20
-51 27 -15 12 -20 11 -43 -12 -14 -14 -26 -29 -26 -33 0 -4 -11 -20 -24 -37
l-24 -30 -39 20 c-21 11 -64 37 -96 58 l-57 38 -25 -28 c-13 -15 -25 -31 -25
-35 0 -4 -12 -20 -28 -37 l-27 -30 -48 29 c-26 17 -49 30 -51 30 -3 0 -20 14
-38 30 -27 26 -30 32 -18 40 19 12 14 11 135 15 99 2 229 10 355 21 107 9 512
63 518 69 2 2 27 2 55 2 43 -2 61 -9 102 -39z m-282 -70 c15 -7 27 -18 27 -24
0 -5 19 -20 43 -31 23 -12 56 -31 74 -43 l31 -21 29 36 c15 20 38 48 49 62
l22 26 42 -39 c23 -22 53 -46 66 -54 22 -13 26 -13 34 0 9 13 11 13 20 0 39
-56 94 -159 107 -198 8 -26 21 -59 29 -73 9 -17 16 -74 20 -155 8 -167 -10
-331 -42 -382 -1 -2 -12 3 -24 10 -23 14 -23 15 -96 -78 l-31 -39 -78 59 -79
59 -38 -44 c-21 -24 -41 -52 -44 -61 -10 -31 -19 -26 -151 68 -22 15 -24 15
-50 -16 -16 -18 -32 -40 -37 -49 -5 -9 -15 -22 -22 -28 -7 -7 -14 -18 -17 -25
-3 -8 -27 9 -62 45 -32 31 -61 57 -65 57 -4 0 -30 -25 -57 -55 -28 -30 -53
-55 -58 -55 -4 0 -30 20 -56 45 -26 25 -52 45 -58 45 -5 0 -26 -23 -46 -51
l-38 -50 -28 27 c-16 15 -29 33 -29 40 0 6 -7 17 -15 24 -17 14 -95 170 -95
191 0 8 -5 20 -12 27 -6 6 -17 26 -24 44 -6 18 -19 51 -27 73 -34 88 -113 387
-122 460 -2 17 -6 54 -10 83 -3 28 -5 52 -2 52 2 0 15 -10 28 -21 73 -64 111
-91 140 -99 28 -8 37 -6 57 13 13 12 35 41 48 64 l25 41 79 -49 c44 -27 90
-49 102 -49 25 0 88 56 88 79 0 28 17 46 32 34 28 -22 126 -71 155 -77 30 -7
31 -6 104 73 10 12 19 26 19 31 0 13 10 13 43 -2z m537 -923 c17 -20 -12 -104
-48 -136 -46 -42 -159 -94 -247 -114 -62 -14 -263 -35 -335 -35 -115 0 -261
26 -320 57 -14 7 -31 13 -39 13 -19 0 -91 42 -91 53 0 12 62 97 71 97 4 0 11
-5 14 -10 4 -6 29 -29 56 -50 l50 -39 32 36 c18 21 43 47 57 59 l25 22 61 -49
c34 -27 66 -49 70 -49 5 0 20 16 34 36 14 19 33 44 42 55 9 12 19 26 21 32 3
8 12 5 25 -8 29 -29 53 -48 95 -74 l37 -23 20 24 c11 12 19 26 20 30 0 13 52
68 65 68 7 0 41 -22 75 -50 34 -27 68 -50 74 -50 7 0 32 27 57 60 46 62 59 69
79 45z"/>
<path d="M3972 7133 c-12 -10 -23 -29 -24 -43 -3 -21 2 -25 28 -28 40 -4 61
19 48 55 -12 34 -26 38 -52 16z"/>
<path d="M9865 6964 c-9 -9 -15 -26 -13 -38 5 -32 62 -30 66 2 3 23 -13 52
-29 52 -4 0 -15 -7 -24 -16z"/>
<path d="M9684 6956 c-9 -24 0 -51 18 -54 20 -4 40 30 32 52 -8 20 -43 21 -50
2z"/>
</g>
</svg>
